<svg width="19" height="11" viewBox="0 0 19 11" fill="none" xmlns="http://www.w3.org/2000/svg">
<path d="M9.93555 9.99805C9.79883 9.99805 9.66895 9.9707 9.5459 9.91602C9.42741 9.86589 9.31348 9.78385 9.2041 9.66992L4.05664 4.41309C3.88346 4.23535 3.79688 4.01888 3.79688 3.76367C3.79688 3.59961 3.83789 3.44694 3.91992 3.30566C4.00195 3.16439 4.11133 3.05046 4.24805 2.96387C4.38477 2.88184 4.53971 2.84082 4.71289 2.84082C4.96354 2.84082 5.18685 2.93652 5.38281 3.12793L9.93555 7.81055L14.4883 3.12793C14.6797 2.93652 14.903 2.84082 15.1582 2.84082C15.3268 2.84082 15.4795 2.88184 15.6162 2.96387C15.7575 3.05046 15.8691 3.16439 15.9512 3.30566C16.0332 3.44694 16.0742 3.59961 16.0742 3.76367C16.0742 4.01888 15.9876 4.23535 15.8145 4.41309L10.667 9.66992C10.5576 9.7793 10.4437 9.86133 10.3252 9.91602C10.2067 9.9707 10.0768 9.99805 9.93555 9.99805Z" fill="#C7C7CC"/>
</svg>
