<svg width="44" height="44" viewBox="0 0 44 44" fill="none" xmlns="http://www.w3.org/2000/svg">
<path d="M22.4387 18.0908V26.4172H34.2458C33.7273 29.0949 32.1715 31.3623 29.838 32.8868L36.9582 38.3009C41.1066 34.5483 43.5 29.0365 43.5 22.4888C43.5 20.9642 43.3604 19.4982 43.1011 18.0911L22.4387 18.0908Z" fill="#4285F4"/>
<path d="M10.1434 26.0922L8.5375 27.2969L2.85321 31.6359C6.46316 38.6527 13.862 43.5 22.4381 43.5C28.3615 43.5 33.3276 41.5846 36.9576 38.301L29.8375 32.8869C27.8829 34.1769 25.3898 34.9588 22.4381 34.9588C16.734 34.9588 11.8876 31.1865 10.1523 26.1046L10.1434 26.0922Z" fill="#34A853"/>
<path d="M2.85329 12.3641C1.35753 15.2567 0.5 18.5208 0.5 21.9998C0.5 25.4789 1.35753 28.743 2.85329 31.6356C2.85329 31.655 10.1531 26.0847 10.1531 26.0847C9.71434 24.7947 9.45499 23.4266 9.45499 21.9996C9.45499 20.5726 9.71434 19.2045 10.1531 17.9145L2.85329 12.3641Z" fill="#FBBC05"/>
<path d="M22.4386 9.0609C25.6696 9.0609 28.5416 10.1554 30.8352 12.2664L37.1177 6.10962C33.3083 2.63059 28.3622 0.5 22.4386 0.5C13.8625 0.5 6.46317 5.32772 2.85321 12.3641L10.1528 17.915C11.8879 12.8331 16.7345 9.0609 22.4386 9.0609Z" fill="#EA4335"/>
</svg>
