<svg width="46" height="46" viewBox="0 0 46 46" fill="none" xmlns="http://www.w3.org/2000/svg">
<circle cx="23" cy="23" r="22.5" fill="#FEE500"/>
<path d="M23.0651 11.3591C16.0648 11.3591 10.4195 15.8754 10.4195 21.3581C10.4195 24.9169 12.768 28.0331 16.2906 29.8126L15.0984 34.2656C15.0759 34.3324 15.0724 34.404 15.0884 34.4726C15.1043 34.5412 15.1391 34.604 15.1887 34.654C15.261 34.7178 15.3541 34.7531 15.4506 34.7533C15.5306 34.7469 15.6065 34.7153 15.6674 34.663L20.7979 31.2036C21.5552 31.3081 22.3186 31.3624 23.0831 31.3661C30.0743 31.3661 35.7287 26.8499 35.7287 21.3581C35.7287 15.8663 30.0562 11.3591 23.0651 11.3591Z" fill="#392020"/>
<path d="M14.8451 19.7774H13.4631C13.2918 19.7824 13.1226 19.7385 12.9753 19.6509C12.9099 19.6099 12.8537 19.5559 12.8102 19.4921C12.7667 19.4284 12.7368 19.3564 12.7224 19.2805C12.718 19.2325 12.718 19.1842 12.7224 19.1361C12.7181 19.0462 12.7356 18.9564 12.7733 18.8747C12.8111 18.7929 12.868 18.7215 12.9392 18.6664C13.0967 18.5524 13.2867 18.4921 13.4811 18.4947H17.6451C17.8178 18.4887 17.9881 18.536 18.1329 18.6302C18.1998 18.6694 18.2572 18.723 18.301 18.787C18.3447 18.8511 18.3737 18.924 18.3858 19.0006C18.3902 19.0457 18.3902 19.0911 18.3858 19.1361C18.3901 19.2274 18.3726 19.3183 18.335 19.4015C18.2973 19.4847 18.2404 19.5578 18.169 19.6147C18.0154 19.7287 17.8272 19.7861 17.6361 19.7774H16.2993V24.5285C16.3047 24.6297 16.2891 24.7309 16.2533 24.8258C16.2175 24.9206 16.1625 25.007 16.0915 25.0795C16.0235 25.1487 15.9418 25.203 15.8516 25.2388C15.7614 25.2746 15.6646 25.2911 15.5677 25.2872C15.398 25.292 15.232 25.2378 15.098 25.1337C14.9704 25.032 14.8838 24.8876 14.8541 24.7272C14.8452 24.6613 14.8452 24.5944 14.8541 24.5285L14.8451 19.7774Z" fill="#FEE500"/>
<path d="M18.7845 18.847C18.8242 18.6984 18.9175 18.5697 19.0464 18.4857C19.1838 18.4078 19.3403 18.3703 19.4981 18.3773H19.8413C20.0087 18.3713 20.1744 18.412 20.32 18.4947C20.4743 18.5985 20.584 18.7565 20.6271 18.9373L22.4336 24.0407C22.4805 24.1739 22.5197 24.3096 22.5511 24.4473C22.5542 24.5044 22.5542 24.5617 22.5511 24.6188C22.5541 24.7069 22.5379 24.7945 22.5036 24.8756C22.4693 24.9567 22.4177 25.0294 22.3524 25.0885C22.2891 25.1534 22.2131 25.2045 22.1292 25.2387C22.0453 25.2729 21.9552 25.2894 21.8646 25.2872C21.7253 25.3011 21.5854 25.2677 21.4674 25.1923C21.3494 25.1169 21.2602 25.004 21.2142 24.8718L20.8349 23.7608H18.4593L18.08 24.8718C18.0351 25.0066 17.9448 25.1217 17.8246 25.1975C17.7044 25.2732 17.5616 25.3049 17.4206 25.2872C17.2678 25.2912 17.1182 25.2435 16.9961 25.1517C16.877 25.057 16.7967 24.9222 16.7702 24.7724C16.7654 24.7213 16.7654 24.6699 16.7702 24.6188C16.7547 24.5292 16.7547 24.4376 16.7702 24.3479C16.7702 24.2485 16.8335 24.1401 16.8696 24.0407L18.7845 18.847ZM19.6878 20.0303L18.8297 22.7401H20.5368L19.6878 20.0303Z" fill="#FEE500"/>
<path d="M22.7579 19.1362C22.7488 18.9335 22.8202 18.7354 22.9566 18.5852C23.026 18.5153 23.1093 18.4606 23.2011 18.4248C23.2929 18.389 23.3911 18.3728 23.4896 18.3774C23.6588 18.3754 23.8239 18.4294 23.9592 18.531C24.0847 18.6369 24.168 18.7843 24.1941 18.9465C24.203 19.0094 24.203 19.0733 24.1941 19.1362V23.8873H26.678C26.8502 23.8851 27.0195 23.932 27.1658 24.0227C27.2316 24.0633 27.2881 24.1173 27.3316 24.1811C27.3752 24.2449 27.4049 24.3171 27.4187 24.3931C27.4187 24.3931 27.4187 24.4835 27.4187 24.5286C27.423 24.6186 27.4055 24.7082 27.3678 24.7899C27.3301 24.8717 27.2732 24.9432 27.2019 24.9983C27.0445 25.1124 26.8544 25.1725 26.66 25.1699H23.607C23.4125 25.1824 23.2193 25.1318 23.056 25.0254C22.91 24.9163 22.8127 24.7541 22.785 24.5738C22.7784 24.4746 22.7784 24.3749 22.785 24.2757L22.7579 19.1362Z" fill="#FEE500"/>
<path d="M27.5815 19.1362C27.576 18.9341 27.647 18.7374 27.7802 18.5853C27.9155 18.4623 28.0892 18.3896 28.2718 18.3797C28.4545 18.3699 28.6349 18.4233 28.7828 18.531C28.911 18.636 28.9975 18.7834 29.0267 18.9465C29.0311 19.0096 29.0311 19.0731 29.0267 19.1362V21.3492L31.3119 18.7116C31.3999 18.6216 31.4935 18.5373 31.5919 18.4588C31.6847 18.4036 31.7911 18.3753 31.899 18.3774C32.0569 18.3766 32.2113 18.4239 32.3416 18.5129C32.403 18.5543 32.4555 18.6077 32.4958 18.6697C32.5362 18.7318 32.5636 18.8014 32.5765 18.8743C32.5801 18.8921 32.5801 18.9106 32.5765 18.9285C32.5721 18.9494 32.5721 18.9708 32.5765 18.9917C32.5761 19.0867 32.5512 19.1801 32.5042 19.2627C32.4563 19.3502 32.3987 19.4319 32.3326 19.5065L30.8332 21.1505L32.6397 23.9505V24.0409C32.7335 24.1703 32.8066 24.3136 32.8565 24.4655V24.5106C32.8669 24.6152 32.8518 24.7209 32.8125 24.8184C32.7732 24.9159 32.7108 25.0024 32.6306 25.0706C32.48 25.1845 32.2956 25.2449 32.1068 25.2423C31.9813 25.2474 31.8566 25.2193 31.7455 25.1609C31.6252 25.0802 31.526 24.9718 31.4564 24.8448L29.7764 22.135L28.9725 22.9751V24.4834C28.9779 24.6856 28.9069 24.8823 28.7738 25.0344C28.7024 25.1042 28.6175 25.1587 28.5243 25.1944C28.4311 25.2301 28.3315 25.2464 28.2318 25.2423C28.0651 25.2457 27.9024 25.1914 27.7711 25.0887C27.6436 24.987 27.557 24.8427 27.5273 24.6822C27.5183 24.6163 27.5183 24.5494 27.5273 24.4834L27.5815 19.1362Z" fill="#FEE500"/>
</svg>
