<svg width="21" height="21" viewBox="0 0 21 21" fill="none" xmlns="http://www.w3.org/2000/svg">
<path d="M10.5 0.75C5.12391 0.75 0.75 5.12391 0.75 10.5C0.75 15.8761 5.12391 20.25 10.5 20.25C15.8761 20.25 20.25 15.8761 20.25 10.5C20.25 5.12391 15.8761 0.75 10.5 0.75ZM14.25 11.25H6.75C6.55109 11.25 6.36032 11.171 6.21967 11.0303C6.07902 10.8897 6 10.6989 6 10.5C6 10.3011 6.07902 10.1103 6.21967 9.96967C6.36032 9.82902 6.55109 9.75 6.75 9.75H14.25C14.4489 9.75 14.6397 9.82902 14.7803 9.96967C14.921 10.1103 15 10.3011 15 10.5C15 10.6989 14.921 10.8897 14.7803 11.0303C14.6397 11.171 14.4489 11.25 14.25 11.25Z" fill="#667080"/>
</svg>
