<svg width="31" height="31" viewBox="0 0 31 31" fill="none" xmlns="http://www.w3.org/2000/svg">
<path d="M15.5003 0.916748C7.45033 0.916748 0.916992 7.45008 0.916992 15.5001C0.916992 23.5501 7.45033 30.0834 15.5003 30.0834C23.5503 30.0834 30.0837 23.5501 30.0837 15.5001C30.0837 7.45008 23.5503 0.916748 15.5003 0.916748ZM15.5003 5.29175C17.9212 5.29175 19.8753 7.24591 19.8753 9.66675C19.8753 12.0876 17.9212 14.0417 15.5003 14.0417C13.0795 14.0417 11.1253 12.0876 11.1253 9.66675C11.1253 7.24591 13.0795 5.29175 15.5003 5.29175ZM15.5003 26.0001C11.8545 26.0001 8.63158 24.1334 6.75033 21.3042C6.79408 18.4022 12.5837 16.8126 15.5003 16.8126C18.4024 16.8126 24.2066 18.4022 24.2503 21.3042C22.3691 24.1334 19.1462 26.0001 15.5003 26.0001Z" fill="#393F48"/>
</svg>
