<svg width="20" height="21" viewBox="0 0 20 21" fill="none" xmlns="http://www.w3.org/2000/svg">
<path d="M10.25 0.75C4.87391 0.75 0.5 5.12391 0.5 10.5C0.5 15.8761 4.87391 20.25 10.25 20.25C15.6261 20.25 20 15.8761 20 10.5C20 5.12391 15.6261 0.75 10.25 0.75ZM14 11.25H11V14.25C11 14.4489 10.921 14.6397 10.7803 14.7803C10.6397 14.921 10.4489 15 10.25 15C10.0511 15 9.86032 14.921 9.71967 14.7803C9.57902 14.6397 9.5 14.4489 9.5 14.25V11.25H6.5C6.30109 11.25 6.11032 11.171 5.96967 11.0303C5.82902 10.8897 5.75 10.6989 5.75 10.5C5.75 10.3011 5.82902 10.1103 5.96967 9.96967C6.11032 9.82902 6.30109 9.75 6.5 9.75H9.5V6.75C9.5 6.55109 9.57902 6.36032 9.71967 6.21967C9.86032 6.07902 10.0511 6 10.25 6C10.4489 6 10.6397 6.07902 10.7803 6.21967C10.921 6.36032 11 6.55109 11 6.75V9.75H14C14.1989 9.75 14.3897 9.82902 14.5303 9.96967C14.671 10.1103 14.75 10.3011 14.75 10.5C14.75 10.6989 14.671 10.8897 14.5303 11.0303C14.3897 11.171 14.1989 11.25 14 11.25Z" fill="#667080"/>
</svg>
